<?xml version="1.0" encoding="UTF-8" standalone="no"?>
<svg
   xmlns:dc="http://purl.org/dc/elements/1.1/"
   xmlns:cc="http://creativecommons.org/ns#"
   xmlns:rdf="http://www.w3.org/1999/02/22-rdf-syntax-ns#"
   xmlns:svg="http://www.w3.org/2000/svg"
   xmlns="http://www.w3.org/2000/svg"
   xmlns:sodipodi="http://sodipodi.sourceforge.net/DTD/sodipodi-0.dtd"
   xmlns:inkscape="http://www.inkscape.org/namespaces/inkscape"
   height="24"
   viewBox="0 0 24 24"
   width="24"
   version="1.1"
   id="svg48"
   sodipodi:docname="egrnvalidator.svg"
   inkscape:version="1.0.2-2 (e86c870879, 2021-01-15)">
  <metadata
     id="metadata54">
    <rdf:RDF>
      <cc:Work
         rdf:about="">
        <dc:format>image/svg+xml</dc:format>
        <dc:type
           rdf:resource="http://purl.org/dc/dcmitype/StillImage" />
      </cc:Work>
    </rdf:RDF>
  </metadata>
  <defs
     id="defs52" />
  <sodipodi:namedview
     pagecolor="#ffffff"
     bordercolor="#666666"
     borderopacity="1"
     objecttolerance="10"
     gridtolerance="10"
     guidetolerance="10"
     inkscape:pageopacity="0"
     inkscape:pageshadow="2"
     inkscape:window-width="1920"
     inkscape:window-height="1057"
     id="namedview50"
     showgrid="false"
     inkscape:zoom="35.458333"
     inkscape:cx="6.5710928"
     inkscape:cy="9.7344301"
     inkscape:window-x="-8"
     inkscape:window-y="-8"
     inkscape:window-maximized="1"
     inkscape:current-layer="svg48" />
  <linearGradient
     id="a"
     gradientUnits="userSpaceOnUse"
     x1="12.1000005"
     x2="12.1000005"
     y1="1029.8622"
     y2="1052.9622005">
    <stop
       offset="0"
       stop-color="#28627d"
       id="stop33" />
    <stop
       offset=".7"
       stop-color="#0c465f"
       id="stop35" />
    <stop
       offset="1"
       stop-color="#003952"
       id="stop37" />
  </linearGradient>
  <g
     stroke-width=".5"
     transform="translate(0 -1029.3622)"
     id="g46">
    <path
       d="m10.05 1052.9622a45.1 45.1 0 0 0 -9.6-8.6l4.5-3.2a17.5 17.5 0 0 1 4.45 5.05l.25.45.2-.45c1.45-3.05 7.65-12.5 13.2-16.35-.2 2.15 0 4.3.65 6.75-5.8 3.5-12.45 14.35-13.65 16.35z"
       fill="url(#a)"
       id="path40" />
    <path
       d="m22.75 1030.4122c-.15 1.95.1 3.95.65 6.1-5.55 3.45-11.85 13.45-13.4 16a44.75 44.75 0 0 0 -9.1-8.15l4.05-2.85a17.5 17.5 0 0 1 4.25 4.85l.45.85.4-.9c1.45-2.95 7.3-11.9 12.7-15.9m.6-1.05c-5.65 3.65-12.2 13.5-13.75 16.7a18.9 18.9 0 0 0 -4.65-5.25l-4.95 3.55a46.55 46.55 0 0 1 10.1 9s7.6-13 13.9-16.65a18 18 0 0 1 -.65-7.35z"
       fill="#003952"
       id="path42" />
    <path
       d="m9.7 1047.1622a49.25 49.25 0 0 1 13.05-16.7c-3.15 2.05-10.5 12.4-13.05 16.7zm-4.7-5.7c-.3.6-3.15 2.7-4.1 2.85.5-.45 3.5-2.55 4.1-2.85z"
       fill="#2286b3"
       id="path44" />
  </g>
  <text
     xml:space="preserve"
     style="font-style:normal;font-weight:normal;font-size:5.33333px;line-height:0;font-family:sans-serif;white-space:pre;inline-size:0;fill:#ff0000;fill-opacity:1;stroke:none"
     x="2.2561693"
     y="5.0481787"
     id="text58"
     transform="translate(-1.1562867,3.4688601)"><tspan
       id="tspan56"
       x="2.2561693"
       y="5.0481787"
       style="font-style:normal;font-variant:normal;font-weight:normal;font-stretch:normal;font-size:7.55906px;line-height:1.25;font-family:Century;-inkscape-font-specification:Century;fill:#ff0000;fill-opacity:1">ЕГРН</tspan></text>
</svg>
