<?xml version="1.0" encoding="UTF-8" standalone="no"?>
<!-- Generator: Adobe Illustrator 19.0.0, SVG Export Plug-In . SVG Version: 6.00 Build 0)  -->

<svg
   version="1.1"
   id="Layer_1"
   x="0px"
   y="0px"
   viewBox="0 0 480 480"
   style="enable-background:new 0 0 480 480;"
   xml:space="preserve"
   sodipodi:docname="select.svg"
   inkscape:version="1.1 (c68e22c387, 2021-05-23)"
   xmlns:inkscape="http://www.inkscape.org/namespaces/inkscape"
   xmlns:sodipodi="http://sodipodi.sourceforge.net/DTD/sodipodi-0.dtd"
   xmlns="http://www.w3.org/2000/svg"
   xmlns:svg="http://www.w3.org/2000/svg"><defs
   id="defs41" /><sodipodi:namedview
   id="namedview39"
   pagecolor="#ffffff"
   bordercolor="#666666"
   borderopacity="1.0"
   inkscape:pageshadow="2"
   inkscape:pageopacity="0.0"
   inkscape:pagecheckerboard="0"
   showgrid="false"
   inkscape:zoom="1.7541667"
   inkscape:cx="239.71496"
   inkscape:cy="240.28504"
   inkscape:window-width="1920"
   inkscape:window-height="1027"
   inkscape:window-x="-8"
   inkscape:window-y="-8"
   inkscape:window-maximized="1"
   inkscape:current-layer="g6" />
<g
   id="g6">
	<g
   id="g4">
		<path
   d="M470,135c5.522,0,10-4.477,10-10V10c0-5.523-4.478-10-10-10H355c-5.522,0-10,4.477-10,10v47.5H135V10    c0-5.523-4.477-10-10-10H10C4.477,0,0,4.477,0,10v115c0,5.523,4.477,10,10,10h47.5v210H10c-5.523,0-10,4.477-10,10v115    c0,5.523,4.477,10,10,10h115c5.523,0,10-4.477,10-10v-47.5h210V470c0,5.523,4.478,10,10,10h115c5.522,0,10-4.477,10-10V355    c0-5.523-4.478-10-10-10h-47.5V135H470z M20,115V20h95v95H20z M115,460H20v-95h95V460z M345,355v47.5H135V355    c0-5.523-4.477-10-10-10H77.5V135H125c5.523,0,10-4.477,10-10V77.5h210V125c0,5.523,4.478,10,10,10h47.5v210H355    C349.478,345,345,349.477,345,355z M460,365v95h-95v-95H460z M365,115V20h95v95H365z"
   id="path2" />
	</g>
<path
   style="fill:#ff0000;stroke-width:0.570071"
   d="M 8.0642047,479.37581 C 4.9426638,478.63306 2.5999324,476.77609 1.371269,474.07065 0.35842062,471.84042 0.30950508,469.03058 0.29755553,412.3937 l -0.0125199,-59.34026 1.32542817,-2.51247 c 0.8262902,-1.56631 2.1680463,-2.99196 3.5629454,-3.78575 2.2218111,-1.26434 2.4145893,-1.27334 27.4631708,-1.28266 l 25.225653,-0.009 V 240 134.53682 H 32.686665 7.5110964 L 5.092963,133.11969 C 3.4805856,132.17478 2.2766735,130.8801 1.4799328,129.23425 0.29002484,126.77623 0.2850879,126.51853 0.29755553,67.515979 0.30950468,10.96718 0.35845419,8.1595063 1.371269,5.9293505 2.6779084,3.0522113 4.9925205,1.3405682 8.6276688,0.56328194 10.47362,0.1685711 30.755997,0.02284122 69.263658,0.12760931 124.85911,0.27886837 127.21163,0.32760844 129.31453,1.3717553 c 1.20375,0.5976959 2.87121,2.1177672 3.70546,3.3779363 l 1.51683,2.2912163 0.16491,25.2681451 0.16491,25.268144 h 105.13868 105.13869 l 0.15959,-25.268013 0.15958,-25.2680133 1.51683,-2.2913479 c 0.83425,-1.2602412 2.50171,-2.7803716 3.70546,-3.3780675 2.1029,-1.04414686 4.45542,-1.09288693 60.05087,-1.24414599 38.50767,-0.10476809 58.79004,0.0409619 60.63599,0.43567263 3.63515,0.77728626 5.94976,2.48892936 7.2564,5.36606856 1.01281,2.2301558 1.06177,5.0378295 1.07372,61.5866285 0.0125,59.002551 0.008,59.260251 -1.18238,61.718271 -0.79674,1.64585 -2.00066,2.94053 -3.61304,3.88544 l -2.41813,1.41713 H 447.31333 422.13777 V 240 345.46318 h 25.17556 25.17557 l 2.41813,1.41713 c 1.61238,0.94491 2.8163,2.23959 3.61304,3.88544 1.18991,2.45802 1.19484,2.71572 1.18238,61.71827 -0.012,56.5488 -0.0609,59.35648 -1.07372,61.58663 -1.30664,2.87714 -3.62125,4.58878 -7.2564,5.36607 -1.84595,0.39471 -22.12832,0.54044 -60.63599,0.43567 -55.59545,-0.15126 -57.94797,-0.2 -60.05087,-1.24415 -1.20375,-0.59769 -2.87121,-2.11776 -3.70546,-3.37793 l -1.51683,-2.29122 -0.16491,-25.26814 -0.16491,-25.26815 H 240 134.86664 l -0.16491,25.26815 -0.16491,25.26814 -1.51683,2.29122 c -0.83425,1.26017 -2.50171,2.78024 -3.70546,3.37793 -2.1061,1.04574 -4.39232,1.09018 -60.620943,1.17854 -33.811756,0.0531 -59.358047,-0.12847 -60.6293823,-0.43097 z M 115.43943,412.44656 V 364.84561 H 67.553444 19.667458 v 47.60095 47.60095 h 47.885986 47.885986 z m 344.89311,0 v -47.60095 h -47.88598 -47.88599 v 47.60095 47.60095 h 47.88599 47.88598 z M 345.17815,378.66607 c 0,-14.21787 0.23286,-25.18625 0.55884,-26.32289 0.62801,-2.18975 2.94554,-4.8687 5.25608,-6.07579 1.25715,-0.65676 6.14335,-0.80421 26.65083,-0.80421 h 25.11144 V 240 134.53682 H 377.6439 c -20.50748,0 -25.39368,-0.14745 -26.65083,-0.80421 -2.31054,-1.20709 -4.62807,-3.88604 -5.25608,-6.07579 -0.32598,-1.13664 -0.55884,-12.10502 -0.55884,-26.32289 V 76.95962 H 240 134.82185 v 24.37431 c 0,14.21787 -0.23286,25.18625 -0.55884,26.32289 -0.62801,2.18975 -2.94554,4.8687 -5.25608,6.07579 -1.25715,0.65676 -6.14335,0.80421 -26.65083,0.80421 H 77.244656 V 240 345.46318 H 102.3561 c 20.50748,0 25.39368,0.14745 26.65083,0.80421 2.31054,1.20709 4.62807,3.88604 5.25608,6.07579 0.32598,1.13664 0.55884,12.10502 0.55884,26.32289 v 24.37431 H 240 345.17815 Z M 115.43943,67.553444 V 19.952494 H 67.553444 19.667458 v 47.60095 47.600946 h 47.885986 47.885986 z m 344.89311,0 v -47.60095 h -47.88598 -47.88599 v 47.60095 47.600946 h 47.88599 47.88598 z"
   id="path932" /><path
   style="fill:#ff0000;stroke-width:0.570071"
   d="m 20.23753,412.44656 v -47.03088 h 47.315914 47.315916 v 47.03088 47.03087 H 67.553444 20.23753 Z"
   id="path971" /><path
   style="fill:#ff0000;stroke-width:0.570071"
   d="M 20.23753,67.553444 V 20.522565 H 67.553444 114.86936 V 67.553444 114.58432 H 67.553444 20.23753 Z"
   id="path1010" /><path
   style="fill:#ff0000;stroke-width:0.570071"
   d="M 365.13064,67.553444 V 20.522565 h 47.31592 47.31591 v 47.030879 47.030876 h -47.31591 -47.31592 z"
   id="path1049" /><path
   style="fill:#ff0000;stroke-width:0.570071"
   d="m 365.13064,412.44656 v -47.03088 h 47.31592 47.31591 v 47.03088 47.03087 h -47.31591 -47.31592 z"
   id="path1088" /><path
   style="fill:#ff0000;stroke-width:0.570071"
   d="M 6.8408551,478.58742 C 4.0051381,477.57586 1.5939194,474.79626 1.2002798,472.08509 1.0356709,470.95136 0.73070337,443.95044 0.52257412,412.08305 l -0.37841672,-57.9407 1.526007,-2.77189 c 2.7073227,-4.91766 2.9553801,-5.00023 16.2870806,-5.42111 6.427553,-0.20293 18.035629,-0.39533 25.795724,-0.42756 l 14.109264,-0.0586 V 240 134.53682 H 32.893207 7.9241826 L 5.5140348,132.97405 C 4.0614859,132.0322 2.6530762,130.48003 1.9692572,129.06745 0.85540572,126.76653 0.83742493,125.62331 0.98738503,66.639717 L 1.1401425,6.5558195 2.4677463,4.6944863 C 5.4082153,0.57187639 0.60685203,0.85510689 67.553444,0.85510689 h 60.142516 l 2.10903,1.31139561 c 1.15997,0.7212676 2.63503,2.1624735 3.27791,3.2026797 1.11626,1.8061491 1.169,2.7350836 1.17148,20.6363478 0.001,10.309785 0.16888,21.63105 0.37213,25.158365 l 0.36955,6.413302 h 105.00506 105.00507 l 0.36806,-5.558195 c 0.20244,-3.057007 0.3694,-14.422845 0.37102,-25.257417 l 0.003,-19.6992236 1.42869,-1.9364874 c 0.78578,-1.0650682 2.25815,-2.4617005 3.27192,-3.1036274 1.82739,-1.15711786 2.3597,-1.16713971 61.99173,-1.16713971 66.95328,0 62.15121,-0.28324612 65.09169,3.83937941 l 1.32761,1.8613332 0.15275,60.0838975 c 0.14997,58.983593 0.13199,60.126813 -0.98187,62.427733 -0.68382,1.41258 -2.09222,2.96475 -3.54478,3.9066 l -2.41014,1.56277 H 447.10679 422.13777 V 240 345.46318 h 24.96902 24.96903 l 2.41014,1.56277 c 1.45256,0.94185 2.86096,2.49402 3.54478,3.9066 1.11386,2.30092 1.13184,3.44414 0.98187,62.42773 l -0.15275,60.0839 -1.32761,1.86133 c -2.94048,4.12263 1.86159,3.83938 -65.09169,3.83938 -59.63203,0 -60.16434,-0.01 -61.99173,-1.16714 -1.01377,-0.64192 -2.48614,-2.03856 -3.27192,-3.10363 l -1.42869,-1.93648 v -18.32706 c 0,-10.07988 -0.16769,-21.44572 -0.37265,-25.25742 l -0.37263,-6.93036 H 239.99949 134.99606 l -0.36955,6.4133 c -0.20325,3.52732 -0.37071,14.89316 -0.37213,25.25742 l -0.003,18.84412 -1.42869,1.93648 c -0.78578,1.06507 -2.25805,2.46171 -3.2717,3.10363 -1.8233,1.15466 -2.4772,1.16851 -61.136627,1.29512 -50.14403,0.10823 -59.6452234,0.002 -61.5736479,-0.68545 z M 345.43313,377.82792 c 0.45334,-27.24229 0.37515,-26.61622 3.72125,-29.79942 l 1.79773,-1.71021 11.22228,-0.37246 c 6.17226,-0.20486 17.82799,-0.39726 25.90162,-0.42756 l 14.67933,-0.0551 V 240 134.53682 l -14.39429,-0.0569 c -7.91687,-0.0313 -19.57264,-0.22368 -25.90172,-0.42755 l -11.5074,-0.37066 -1.79764,-1.71021 c -3.346,-3.18327 -3.26783,-2.55724 -3.72116,-29.79942 l -0.41954,-25.21246 h -105.0183 -105.0183 l -0.42255,25.22565 c -0.45616,27.23247 -0.37979,26.6192 -3.70873,29.78623 l -1.79764,1.71021 -11.5074,0.37067 c -6.32908,0.20387 -17.984851,0.39626 -25.901715,0.42755 l -14.394299,0.0569 V 240 345.46318 l 14.679334,0.0551 c 8.073635,0.0303 19.72936,0.2227 25.90162,0.42756 l 11.22228,0.37246 1.79773,1.71021 c 3.32903,3.16696 3.25266,2.55364 3.70882,29.78622 l 0.42255,25.22566 h 105.0183 105.0183 l 0.41954,-25.21246 z"
   id="path1127"
   sodipodi:nodetypes="csscssscccccssscsscsscscccsscsssscssscccccccssscsssscsscccsccsssccsscsscccsscsscccsscsscccsscssccccs" /></g>
<g
   id="g8">
</g>
<g
   id="g10">
</g>
<g
   id="g12">
</g>
<g
   id="g14">
</g>
<g
   id="g16">
</g>
<g
   id="g18">
</g>
<g
   id="g20">
</g>
<g
   id="g22">
</g>
<g
   id="g24">
</g>
<g
   id="g26">
</g>
<g
   id="g28">
</g>
<g
   id="g30">
</g>
<g
   id="g32">
</g>
<g
   id="g34">
</g>
<g
   id="g36">
</g>
</svg>
