<?xml version="1.0" encoding="iso-8859-1"?>
<!-- Generator: Adobe Illustrator 19.0.0, SVG Export Plug-In . SVG Version: 6.00 Build 0)  -->
<svg version="1.1" id="Layer_1" xmlns="http://www.w3.org/2000/svg" xmlns:xlink="http://www.w3.org/1999/xlink" x="0px" y="0px"
	 viewBox="0 0 480.001 480.001" style="enable-background:new 0 0 480.001 480.001;" xml:space="preserve">
<g>
	<g>
		<path d="M423.91,331.553L305.239,227.87c0.016-0.021,0.035-0.038,0.051-0.059c19.432-24.984,29.704-54.949,29.704-86.654
			C334.993,63.323,271.67,0,193.836,0C115.998,0,52.672,63.323,52.672,141.157c0,38.852,14.169,74.717,39.897,100.988
			c26.417,26.976,62.248,41.656,103.836,42.608l14.63,155.591c0.311,3.3,2.236,6.232,5.142,7.828
			c1.497,0.823,3.155,1.235,4.814,1.235c1.559,0,3.12-0.364,4.55-1.095l86.558-44.229l39.318,70.772
			c1.828,3.29,5.236,5.146,8.751,5.146c1.642,0,3.309-0.406,4.847-1.261c4.828-2.682,6.567-8.77,3.885-13.598l-38.98-70.166
			l91.96-46.989c2.955-1.51,4.968-4.387,5.374-7.68C427.661,337.016,426.408,333.735,423.91,331.553z M72.672,141.157
			C72.672,74.351,127.026,20,193.836,20c66.806,0,121.157,54.351,121.157,121.157c0,26.858-8.6,52.251-24.854,73.521l-24.743-21.617
			c11.027-15.148,16.851-33.026,16.851-51.903c0-48.746-39.661-88.403-88.411-88.403c-48.75,0-88.411,39.657-88.411,88.403
			c0,47.876,38.247,86.984,85.788,88.377l3.305,35.146C114.498,261.685,72.672,201.067,72.672,141.157z M188.583,134.308
			c-3.643,1.865-5.782,5.763-5.398,9.838l6.137,65.266c-35.623-2.335-63.896-32.046-63.896-68.254
			c0-37.718,30.689-68.403,68.411-68.403c37.722,0,68.411,30.686,68.411,68.403c0,13.999-4.141,27.281-11.992,38.675l-50.536-44.154
			C196.638,132.986,192.226,132.445,188.583,134.308z M229.568,423.796l-24.124-256.559l194.186,169.66L229.568,423.796z"/>
	</g>
</g>
<g>
</g>
<g>
</g>
<g>
</g>
<g>
</g>
<g>
</g>
<g>
</g>
<g>
</g>
<g>
</g>
<g>
</g>
<g>
</g>
<g>
</g>
<g>
</g>
<g>
</g>
<g>
</g>
<g>
</g>
</svg>
